<?xml version="1.0" encoding="utf-8"?>
<!-- Generator: Adobe Illustrator 23.0.6, SVG Export Plug-In . SVG Version: 6.00 Build 0)  -->
<svg version="1.0" xmlns="http://www.w3.org/2000/svg" xmlns:xlink="http://www.w3.org/1999/xlink" x="0px" y="0px"
	 viewBox="0 0 510.009 365.499" enable-background="new 0 0 510.009 365.499" xml:space="preserve">
<g id="Minimal_Space">
	<rect y="-0.001" fill="#FFFFFF" width="509.999" height="365.5"/>
</g>
<g id="Logotype">
	<polygon fill="#FFFFFF" points="255.576,16.024 73.191,257.527 438.208,257.527 	"/>
	<g>
		<path fill="#E63719" d="M311.861,341.215h-6.367v-24.857h6.367v11.599l11.771-11.599h7.771l-10.967,10.862l11.002,13.994h-7.73
			l-7.563-9.64l-4.285,4.366V341.215z"/>
		<path fill="#E63719" d="M354.253,316.358c3.447,0,6.221,2.777,6.221,6.224v18.633h-6.357v-5.947h-12.164v5.947h-6.33v-18.633
			c0-3.446,2.777-6.224,6.156-6.224H354.253z M344.095,321.663c-1.199,0-2.142,0.952-2.142,2.15v6.148h12.164v-6.148
			c0-1.198-0.949-2.15-2.113-2.15H344.095z"/>
		<path fill="#E63719" d="M391.763,336.079v5.136h-18.631c-3.439,0-6.221-2.777-6.221-6.226v-18.631h24.852v5.131H373.24v4.711
			h15.785l-1.479,5.171H373.24v2.566c0,1.158,0.945,2.142,2.141,2.142H391.763z"/>
		<path fill="#E63719" d="M422.208,316.358v5.131h-16.412c-1.203,0-2.113,0.91-2.113,2.142v3.098h15.887l-1.475,5.162h-14.412v9.324
			h-6.365v-18.6c0-3.479,2.809-6.257,6.225-6.257H422.208z"/>
		<path fill="#E63719" d="M452.615,336.079v5.136h-18.633c-3.445,0-6.221-2.777-6.221-6.226v-18.631h24.854v5.131h-18.525v4.711
			h15.779l-1.469,5.171h-14.311v2.566c0,1.158,0.949,2.142,2.143,2.142H452.615z"/>
		<path fill="#E63719" d="M483.796,341.215h-7.42l-4.15-5.804h-7.346v5.804h-6.361v-24.857h18.631c3.478,0,6.256,2.81,6.256,6.224
			v6.853c0,3.443-2.568,5.128-3.936,5.626L483.796,341.215z M477.041,327.957v-4.289c0-1.268-0.879-2.146-2.104-2.146H464.88v8.545
			h10.057C476.162,330.067,477.041,329.19,477.041,327.957z"/>
	</g>
	<g>
		<path d="M39.199,318.607h3.809v15.252c0,4.759-3.3,7.31-8.225,7.31c-5.201,0-8.432-2.446-8.432-7.345v-15.217h3.913v15.083
			c0,2.788,1.526,4.418,4.584,4.418c3.063,0,4.552-1.529,4.523-4.385L39.199,318.607z"/>
		<path d="M64.404,340.69v-10.879c0-1.423-0.406-2.236-1.937-2.236c-1.732,0-3.296,1.496-3.296,1.496v11.619h-3.329v-10.879
			c0-1.423-0.511-2.236-1.968-2.236c-1.839,0-3.331,1.528-3.331,1.528v11.587h-3.362v-11.759c0-2.549-0.648-3.635-0.648-3.635
			l3.906-0.647v1.97c0,0,1.938-2.039,4.69-2.039c1.699,0,3.024,0.75,3.604,2.109c0.778-0.78,2.581-2.109,4.957-2.109
			c2.721,0,4.078,1.632,4.078,4.658v11.451H64.404z"/>
		<path d="M80.401,340.69c0,0-0.206-0.34-0.374-1.601c0,0-1.802,2.006-4.758,2.006c-2.648,0-4.384-1.597-4.384-4.45
			c0-2.887,2.209-4.859,6.146-4.859h2.861v-1.325c0-2.007-1.057-2.954-2.895-2.954c-2.07,0-3.596,0.947-4.244,1.463l-1.359-2.245
			c0,0,2.139-2.208,6.084-2.208c3.907,0,5.705,2.002,5.705,5.507v6.252c0,2.918,0.646,4.415,0.646,4.415H80.401z M79.894,334.101
			h-2.725c-1.931,0-2.95,0.912-2.95,2.31c0,1.254,0.643,2.003,2.002,2.003c2.075,0,3.673-1.697,3.673-1.697V334.101z"/>
		<path d="M107.234,339.298c0,0-1.833,1.798-5.437,1.798c-5.03,0-7.542-3.159-7.542-8.256c0-4.959,2.718-8.323,7.27-8.323
			c3.909,0,5.811,2.547,5.811,5.979c0,1.732-0.51,2.958-0.51,2.958h-9.242c0.203,3.093,2.108,4.722,4.725,4.722
			c2.545,0,4.144-1.017,4.144-1.055L107.234,339.298z M104.175,331.108c0,0,0.071-0.443,0.071-0.849c0-1.902-0.987-3.16-2.957-3.16
			c-1.97,0-3.363,1.563-3.639,4.009H104.175z"/>
		<path d="M128.024,340.69v-10.879c0-1.423-0.409-2.236-1.938-2.236c-1.733,0-3.294,1.496-3.294,1.496v11.619h-3.335v-10.879
			c0-1.423-0.508-2.236-1.969-2.236c-1.832,0-3.328,1.528-3.328,1.528v11.587h-3.363v-11.759c0-2.549-0.649-3.635-0.649-3.635
			l3.906-0.647v1.97c0,0,1.939-2.039,4.693-2.039c1.696,0,3.023,0.75,3.6,2.109c0.782-0.78,2.584-2.109,4.963-2.109
			c2.715,0,4.079,1.632,4.079,4.658v11.451H128.024z"/>
		<path d="M135.286,348.096v-19.164c0-2.549-0.646-3.635-0.646-3.635l3.91-0.647v1.905c0,0,1.901-1.975,4.55-1.975
			c3.775,0,5.573,2.787,5.573,7.786c0,5.264-2.616,8.526-7.099,8.526c-1.465,0-2.961-0.476-2.961-0.476v6.998L135.286,348.096z
			 M138.613,337.36c0,0,1.021,0.781,2.927,0.781c2.409,0,3.704-1.802,3.704-5.302c0-3.669-1.193-5.333-3.331-5.333
			c-2.037,0-3.3,1.732-3.3,1.732V337.36z"/>
		<path d="M152.13,340.69v-11.759c0-2.549-0.643-3.635-0.643-3.635l4.012-0.612v2.854c0,0,1.732-3.022,4.688-3.022
			c0.407,0,0.884,0.1,0.884,0.1v3.568c0,0-0.817-0.204-1.431-0.204c-2.72,0-4.076,2.684-4.076,2.684v10.026H152.13z"/>
		<path d="M175.337,339.298c0,0-1.836,1.798-5.435,1.798c-5.031,0-7.543-3.159-7.543-8.256c0-4.959,2.714-8.323,7.269-8.323
			c3.907,0,5.809,2.547,5.809,5.979c0,1.732-0.506,2.958-0.506,2.958h-9.243c0.202,3.093,2.105,4.722,4.721,4.722
			c2.549,0,4.143-1.017,4.143-1.055L175.337,339.298z M172.277,331.108c0,0,0.069-0.443,0.069-0.849c0-1.902-0.984-3.16-2.959-3.16
			c-1.967,0-3.361,1.563-3.632,4.009H172.277z"/>
		<path d="M178.628,336.613c0,0,2.617,1.834,5.162,1.834c1.566,0,2.414-0.68,2.414-1.869c0-3.362-7.916-1.258-7.916-7.206
			c0-2.954,2.211-4.855,5.875-4.855c3.096,0,5.033,0.847,5.033,0.847l-0.514,3.331c0,0-2.105-1.529-4.652-1.529
			c-1.598,0-2.414,0.784-2.414,1.906c0,3.532,7.887,1.256,7.887,7.204c0,3.023-2.209,4.82-5.947,4.82
			c-3.164,0-5.438-1.121-5.438-1.121L178.628,336.613z"/>
		<path d="M201.658,340.69c0,0-0.205-0.34-0.373-1.601c0,0-1.799,2.006-4.756,2.006c-2.648,0-4.385-1.597-4.385-4.45
			c0-2.887,2.209-4.859,6.148-4.859h2.857v-1.325c0-2.007-1.053-2.954-2.891-2.954c-2.07,0-3.602,0.947-4.244,1.463l-1.359-2.245
			c0,0,2.139-2.208,6.08-2.208c3.908,0,5.709,2.002,5.709,5.507v6.252c0,2.918,0.646,4.415,0.646,4.415H201.658z M201.15,334.101
			h-2.723c-1.93,0-2.947,0.912-2.947,2.31c0,1.254,0.639,2.003,2.002,2.003c2.072,0,3.668-1.697,3.668-1.697V334.101z"/>
	</g>
	<polygon fill="#A5AAB4" points="181.904,113.585 175.279,122.354 335.978,122.336 329.345,113.592 	"/>
	<polygon fill="#A5AAB4" points="266.251,30.134 255.576,16.024 244.912,30.134 	"/>
	<polygon fill="#A5AAB4" points="296.371,69.994 289.304,60.63 221.888,60.63 214.832,69.994 	"/>
	<polygon fill="#A5AAB4" points="315.628,95.44 308.029,85.421 203.21,85.421 195.654,95.44 	"/>
	<g>
		<polygon fill="#A5AAB4" points="211.48,186.777 220.943,201.112 232.3,201.112 232.3,185.367 213.037,185.367 		"/>
		<path fill="#A5AAB4" d="M352.431,192.583c0.148-0.151-0.184,0.099-0.033-0.051c-5.666,5.745-13.541,8.493-22.207,8.581h65.369
			l-11.932-15.743l-20.871-0.003C359.999,188.575,356.433,190.975,352.431,192.583z"/>
		<polygon fill="#A5AAB4" points="127.701,185.367 115.795,201.112 141.749,201.112 141.749,185.367 		"/>
		<rect x="274.201" y="185.367" fill="#A5AAB4" width="8.297" height="15.746"/>
	</g>
	<g>
		<path fill="#A5AAB4" d="M282.498,141.846l-2.209-0.002c1.006,1.967,1.764,4.082,2.209,6.315V141.846z"/>
		<path fill="#A5AAB4" d="M231.888,141.805l-11.822-0.011c2.635,2.576,4.643,5.865,6.002,9.472
			C227.265,147.665,229.285,144.446,231.888,141.805z"/>
	</g>
	<g>
		<path fill="#A5AAB4" d="M422.837,237.215l-334.269-0.003l-15.377,20.314h89.845v17.013l1.411,0.478
			c29.58,10.012,60.216,15.09,91.056,15.09c30.84,0,61.475-5.078,91.057-15.09l1.41-0.478v-17.013h90.238L422.837,237.215z
			 M343.818,271.557c-28.713,9.554-58.42,14.396-88.314,14.396c-29.898,0-59.598-4.843-88.312-14.396v-14.03h176.626V271.557z"/>
		<path fill="#A5AAB4" d="M167.191,60.536c27.912-7.955,56.744-12.087,85.763-12.317h5.098c29.021,0.23,57.853,4.362,85.766,12.317
			v61.814h4.152V57.412l-1.498-0.434c-22.572-6.552-45.752-10.631-69.154-12.199l-5.459-7.221h-32.545l-5.443,7.21
			c-23.463,1.558-46.703,5.641-69.335,12.21l-1.499,0.434v64.938h4.155V60.536z"/>
	</g>
	<path fill="#D1D5D8" d="M268.861,221.417h5.328v-44.602c-1.67,1.056-3.455,2.088-5.328,2.975V221.417z"/>
	<path fill="#D1D5D8" d="M318.263,201.11v20.345h5.332V201.11C321.921,201.11,320.128,201.11,318.263,201.11z"/>
	<path fill="#D1D5D8" d="M323.574,172.416v-8.829c-0.631-0.171-1.295-0.271-1.98-0.271h-3.348v11.231h7.26
		c1.078,0,2.1-0.231,3.027-0.64c0.207-0.475,0.369-0.974,0.479-1.492H323.574z"/>
	<polygon fill="#D1D5D8" points="177.486,205.628 177.486,221.417 182.814,221.417 182.814,215.59 	"/>
	<path fill="#D1D5D8" d="M224.808,159.007c0-2.698,0.453-5.289,1.26-7.717c-1.373-3.656-3.41-6.99-6.092-9.586
		c-6.441-6.222-15.604-8.729-24.373-8.816c-1.186-0.013-6.768-0.011-12.789-0.008v-0.01h-31.84V135h26.512v0.013
		c6.021-0.008,11.602-0.008,12.793,0.003c8.768,0.092,17.926,2.597,24.369,8.821c7.129,6.891,9.68,18.982,7.42,28.52
		c-1.068,4.514-3.658,8.193-7.092,10.795c-0.279,0.378-0.572,0.742-0.875,1.095c6.432-2.044,11.648-7.062,13.293-14.02
		c0.018-0.072,0.029-0.147,0.047-0.22C225.769,166.697,224.808,162.967,224.808,159.007z"/>
	<path fill="#D1D5D8" d="M232.289,218.328l-20.818-31.54c-1.467,1.171-3.094,2.133-4.838,2.867l20.965,31.762h4.691V218.328z"/>
	<path fill="#D1D5D8" d="M282.517,148.287c-2.184-11.276-12.096-19.792-24.002-19.792c-4.268,0-8.273,1.095-11.766,3.01
		c2.055-0.557,4.203-0.882,6.434-0.882c13.506,0,24.461,10.955,24.461,24.468c0,7.749-3.609,14.642-9.236,19.125
		c-0.465,0.586-0.961,1.148-1.479,1.689c7.949-2.917,13.955-9.831,15.588-18.308V148.287z"/>
	<path fill="#D1D5D8" d="M360.488,141.43c-7.916-6.572-19.154-8.459-29.047-8.561c-1.883-0.018-13.228-0.008-22.402,0h-17.287V135
		h11.959c9.174-0.008,20.52-0.021,22.402,0c9.891,0.102,21.135,1.991,29.045,8.561c10.029,8.327,10.234,22.912,7.137,34.612
		c-1.402,5.299-4.342,9.456-8.189,12.521c-0.529,0.669-1.094,1.299-1.686,1.899c7.221-2.904,13.039-8.363,15.203-16.55
		C370.724,164.339,370.517,149.759,360.488,141.43z"/>
	<path fill="#D1D5D8" d="M245.675,183.174c2.395,0.845,4.908,1.365,7.508,1.365c3.945,0,7.701-1.29,11.139-3.016
		c-1.879,0.544-3.82,0.888-5.807,0.888c-0.625,0-1.326-0.043-1.941-0.1c-2.332,0.74-4.729,1.125-7.305,1.125
		C248.042,183.437,246.851,183.345,245.675,183.174z"/>
	<path fill="#D1D5D8" d="M182.662,172.913V162.24c-0.912-0.334-1.896-0.524-2.928-0.524h-2.398v13.327h6.307
		c1.365,0,2.652-0.321,3.801-0.891c0.197-0.398,0.371-0.81,0.508-1.239H182.662z"/>
	<g>
		<polygon points="193.06,223.551 177.486,194.428 177.486,205.626 189.154,227.446 225.095,227.446 222.523,223.551 		"/>
		<path d="M214.902,183.241c-2.834,2.126-6.244,3.513-9.875,3.984l1.592,2.415C209.902,188.263,212.781,186.083,214.902,183.241z"/>
		<path d="M187.439,174.154c2.846-1.405,4.805-4.328,4.805-7.716v-0.018c0-4.753-3.848-8.607-8.602-8.607h-6.307v3.895h2.398
			c4.754,0,8.605,3.854,8.605,8.61v0.016C188.339,171.708,188.009,173.001,187.439,174.154z"/>
		<polygon points="145.644,223.551 145.644,138.898 141.737,138.898 141.737,227.446 173.58,227.446 173.58,223.551 		"/>
	</g>
	<g>
		<path d="M236.195,178.076c2.791,1.975,5.949,3.82,9.342,5.035c1.221,0.189,2.461,0.315,3.734,0.315
			c7.713,0,14.578-3.576,19.063-9.148c-4.166,3.297-9.424,5.279-15.15,5.279c-13.52,0-24.469-10.95-24.469-24.465
			c0-5.803,2.029-11.124,5.404-15.318c-5.666,4.48-9.311,11.399-9.311,19.187c0,8.697,4.551,16.316,11.387,20.653V178.076z"/>
		<path d="M236.195,223.548v-39.097c-1.365-0.783-2.672-1.633-3.906-2.509v45.474h32.666v-3.868H236.195z"/>
	</g>
	<g>
		<path d="M333.072,166.986c0-4.177-3.393-7.568-7.566-7.568h-7.26v3.896h3.316c4.18,0,7.572,3.389,7.572,7.57
			c0,1.09-0.238,2.125-0.652,3.063C331.177,172.789,333.072,170.107,333.072,166.986z"/>
		<polygon points="286.425,223.556 286.425,138.902 282.486,138.902 282.486,227.452 314.326,227.452 314.326,223.556 		"/>
		<path d="M333.722,197.246c-0.006,0-7.057,0-15.459,0v3.896c6.551,0,11.516,0,11.516,0c9.434,0,18.725-3.344,24.221-10.365
			C348.507,195.112,341.179,197.246,333.722,197.246z"/>
	</g>
	<g>
		<path fill="#FFFFFF" d="M205.027,187.207c8.084-1.049,15.086-6.596,17.041-14.865c2.26-9.54-0.291-21.63-7.42-28.522
			c-6.443-6.222-15.602-8.729-24.369-8.819c-1.191-0.013-6.771-0.011-12.793-0.005v-0.01h-31.842v88.546h31.842V194.41
			l15.574,29.121h35.943L205.027,187.207z M192.244,166.418c0,4.754-3.848,8.609-8.602,8.609h-6.307v-17.232h6.307
			c4.754,0,8.602,3.854,8.602,8.608V166.418z"/>
		<path fill="#FFFFFF" d="M268.861,178.932v44.598h-32.666v-45.473c4.799,3.395,10.658,6.466,16.988,6.466
			C258.945,184.523,264.318,181.794,268.861,178.932z M277.644,155.073c0-13.511-10.955-24.465-24.461-24.465
			c-13.52,0-24.469,10.955-24.469,24.465c0,13.516,10.949,24.465,24.469,24.465C266.689,179.538,277.644,168.589,277.644,155.073z"
			/>
		<path fill="#FFFFFF" d="M355.158,143.542c-7.91-6.57-19.154-8.457-29.045-8.558c-1.883-0.021-13.228-0.008-22.402,0h-17.285
			v88.546h31.838v-26.311c8.402,0,15.453,0,15.459,0c12.75,0,25.16-6.182,28.572-19.062
			C365.392,166.454,365.187,151.872,355.158,143.542z M333.072,166.96c0,4.181-3.393,7.572-7.566,7.572h-7.26v-15.139h7.26
			C329.679,159.393,333.072,162.783,333.072,166.96L333.072,166.96z"/>
	</g>
	<path fill="#A5AAB4" d="M236.083,299.55c-5.226,0-9.454,4.229-9.454,9.455v38.694c0,5.225,4.229,9.454,9.454,9.454h37.657
		c5.185,0,9.414-4.229,9.414-9.454v-38.694c0-5.227-4.229-9.455-9.414-9.455H236.083z M230.418,322.488v-13.483
		c0-3.111,2.513-5.664,5.665-5.664h37.657c3.111,0,5.624,2.553,5.624,5.664v13.483h-2.394c-2.672-9.773-11.528-16.954-22.06-16.954
		c-10.531,0-19.387,7.181-22.06,16.954H230.418z M268.514,322.488c-2.354-5.306-7.539-8.976-13.603-8.976
		c-6.063,0-11.249,3.67-13.603,8.976h-4.627c2.632-7.699,9.813-13.284,18.23-13.284s15.597,5.545,18.19,13.284H268.514z
		 M254.911,317.183c3.87,0,7.419,2.074,9.534,5.306h-19.068C247.491,319.257,251.001,317.183,254.911,317.183L254.911,317.183z
		 M230.418,330.745v-4.786h48.946v4.786H230.418z M279.364,334.256v13.443c0,3.151-2.513,5.665-5.624,5.665h-37.657
		c-3.151,0-5.665-2.514-5.665-5.665v-13.443h2.433c2.673,9.733,11.529,16.914,22.06,16.914c10.531,0,19.387-7.181,22.06-16.914
		H279.364z M273.101,334.256c-2.593,7.698-9.773,13.243-18.19,13.243s-15.598-5.584-18.23-13.243h4.627
		c2.354,5.266,7.54,8.936,13.603,8.936c6.063,0,11.249-3.67,13.603-8.936H273.101z M264.445,334.256
		c-2.074,3.191-5.664,5.266-9.534,5.266c-3.91,0-7.459-2.074-9.534-5.266H264.445z"/>
</g>
</svg>
